<svg xmlns="http://www.w3.org/2000/svg" viewBox="0 0 24 24" fill="#07C160">
  <path d="M8.7 2.3C4.5 4.1 1.5 7.8 1.5 12c0 2.5 1.1 4.8 2.9 6.6l-.9 2.8c-.1.3 0 .6.2.8.2.2.5.3.8.2l2.8-1.1c1.3.4 2.6.6 3.9.6h.5c.5 0 .9-.4.9-.9V18c0-.4-.3-.7-.7-.7h-1c-3.2 0-5.9-2.2-5.9-5.3 0-3.1 2.7-5.3 5.9-5.3s5.9 2.2 5.9 5.3c0 1.1-.4 2.1-1 2.9l1.4-.5c.3-.1.6-.2.9-.2 1.7 0 3.1 1.2 3.1 2.6 0 1.4-1.4 2.6-3.1 2.6h-2.3v1.5h2.3c2.6 0 4.6-1.8 4.6-4.1 0-2.3-2-4.1-4.6-4.1-.2 0-.5 0-.7.1l-2.4.8c1-1.1 1.6-2.5 1.6-4 0-3.8-3.6-6.8-8.1-6.8-.2 0-.4 0-.5.1z"/>
</svg>